<svg width="189" height="188" viewBox="0 0 189 188" fill="none" xmlns="http://www.w3.org/2000/svg">
    <g clip-path="url(#clip0_178_2118)">
        <rect x="0.5" width="188" height="188" rx="44" fill="#0D0C0E" />
        <g filter="url(#filter0_f_178_2118)">
            <path
                d="M170.536 77.8182L170.536 331.076L170.536 410.73L-531.029 410.73C-524.221 375.669 -481.399 305.546 -364.573 305.546C-218.542 305.546 -141.441 305.546 -51.0646 170.748C11.2403 77.8184 116.072 76.797 170.536 77.8182Z"
                fill="url(#paint0_radial_178_2118)" />
        </g>
        <g filter="url(#filter1_f_178_2118)">
            <path
                d="M118.737 183.161C244.58 162.027 317.668 -4.96238 338.481 -85.8154L338.481 341.665L-485.259 341.665C-480.055 312.846 -464.845 249.685 -445.633 227.59C-327.956 93.102 -38.5659 209.578 118.737 183.161Z"
                fill="url(#paint1_radial_178_2118)" fill-opacity="0.8" />
        </g>
        <g filter="url(#filter2_f_178_2118)">
            <path
                d="M335.058 53.597L-208.578 329.61L14.5774 552.765L458.344 108.999L335.058 53.597Z"
                fill="url(#paint2_radial_178_2118)" fill-opacity="0.6" />
        </g>
        <path
            d="M49.9948 123.741L74.9902 111.272C87.4751 105.043 102.163 105.054 114.639 111.301L139.6 123.798C134.722 132.031 127.639 138.803 119.164 143.301L105.573 136.465C98.8505 133.085 90.928 133.07 84.1936 136.427L70.4332 143.285C61.9525 138.777 54.8676 131.99 49.9948 123.741Z"
            fill="white" />
        <path fill-rule="evenodd" clip-rule="evenodd"
            d="M68.0583 52.6967L68.0592 62.3908C68.0598 70.1473 63.6758 77.2376 56.7366 80.7031L43.7781 87.1746C43.1292 90.4564 42.7891 93.8491 42.7891 97.3212C42.7891 104.398 44.2021 111.144 46.7613 117.294L70.2909 105.529C82.966 99.1913 91.7024 87.2706 94.1237 73.6115C94.182 73.2824 94.4665 73.0397 94.8008 73.0397C95.135 73.0397 95.4196 73.2824 95.4779 73.6115C97.8992 87.2706 106.636 99.1913 119.311 105.529L142.84 117.294C145.4 111.144 146.812 104.398 146.812 97.3212C146.812 93.8491 146.472 90.4564 145.824 87.1746L132.865 80.7031C125.926 77.2376 121.542 70.1473 121.542 62.3908L121.543 52.6967C113.729 48.0023 104.58 45.3023 94.8008 45.3008C85.0214 45.3023 75.8726 48.0023 68.0583 52.6967Z"
            fill="white" />
    </g>
    <defs>
        <filter id="filter0_f_178_2118" x="-631.029" y="-22.3428" width="901.565" height="533.073"
            filterUnits="userSpaceOnUse" color-interpolation-filters="sRGB">
            <feFlood flood-opacity="0" result="BackgroundImageFix" />
            <feBlend mode="normal" in="SourceGraphic" in2="BackgroundImageFix" result="shape" />
            <feGaussianBlur stdDeviation="50" result="effect1_foregroundBlur_178_2118" />
        </filter>
        <filter id="filter1_f_178_2118" x="-530.571" y="-131.127" width="914.364" height="518.104"
            filterUnits="userSpaceOnUse" color-interpolation-filters="sRGB">
            <feFlood flood-opacity="0" result="BackgroundImageFix" />
            <feBlend mode="normal" in="SourceGraphic" in2="BackgroundImageFix" result="shape" />
            <feGaussianBlur stdDeviation="22.6559" result="effect1_foregroundBlur_178_2118" />
        </filter>
        <filter id="filter2_f_178_2118" x="-412.482" y="-150.306" width="1074.73" height="906.975"
            filterUnits="userSpaceOnUse" color-interpolation-filters="sRGB">
            <feFlood flood-opacity="0" result="BackgroundImageFix" />
            <feBlend mode="normal" in="SourceGraphic" in2="BackgroundImageFix" result="shape" />
            <feGaussianBlur stdDeviation="101.952" result="effect1_foregroundBlur_178_2118" />
        </filter>
        <radialGradient id="paint0_radial_178_2118" cx="0" cy="0" r="1"
            gradientUnits="userSpaceOnUse"
            gradientTransform="translate(-180.247 204.742) rotate(90) scale(205.988 433.882)">
            <stop stop-color="#5A10EF" />
            <stop offset="1" stop-color="#5A10EF" stop-opacity="0" />
        </radialGradient>
        <radialGradient id="paint1_radial_178_2118" cx="0" cy="0" r="1"
            gradientUnits="userSpaceOnUse"
            gradientTransform="translate(-10.9477 384.893) rotate(-147.995) scale(271.877 1312.23)">
            <stop stop-color="#37E2B4" stop-opacity="0.7" />
            <stop offset="0.410963" stop-color="#37E2B4" stop-opacity="0" />
        </radialGradient>
        <radialGradient id="paint2_radial_178_2118" cx="0" cy="0" r="1"
            gradientUnits="userSpaceOnUse"
            gradientTransform="translate(124.883 321.725) rotate(-48.3605) scale(359.78 177.224)">
            <stop stop-color="#37E2B4" />
            <stop offset="0.75" stop-color="#37E2B4" stop-opacity="0" />
        </radialGradient>
        <clipPath id="clip0_178_2118">
            <rect x="0.5" width="188" height="188" rx="44" fill="white" />
        </clipPath>
    </defs>
</svg>