<svg width="188" height="188" viewBox="0 0 188 188" fill="none" xmlns="http://www.w3.org/2000/svg">
    <rect width="188" height="188" rx="44" fill="#0D0C0E" />
    <path
        d="M49.4948 123.741L74.4902 111.272C86.9751 105.043 101.663 105.054 114.139 111.301L139.1 123.798C134.222 132.031 127.139 138.803 118.664 143.301L105.073 136.465C98.3505 133.085 90.428 133.07 83.6936 136.427L69.9332 143.285C61.4525 138.777 54.3676 131.99 49.4948 123.741Z"
        fill="white" />
    <path fill-rule="evenodd" clip-rule="evenodd"
        d="M67.5583 52.6967L67.5592 62.3908C67.5598 70.1473 63.1758 77.2376 56.2366 80.7031L43.2781 87.1746C42.6292 90.4564 42.2891 93.8491 42.2891 97.3212C42.2891 104.398 43.7021 111.144 46.2613 117.294L69.7909 105.529C82.466 99.1913 91.2024 87.2706 93.6237 73.6115C93.682 73.2824 93.9665 73.0397 94.3008 73.0397C94.635 73.0397 94.9196 73.2824 94.9779 73.6115C97.3992 87.2706 106.136 99.1913 118.811 105.529L142.34 117.294C144.9 111.144 146.312 104.398 146.312 97.3212C146.312 93.8491 145.972 90.4564 145.324 87.1746L132.365 80.7031C125.426 77.2376 121.042 70.1473 121.042 62.3908L121.043 52.6967C113.229 48.0023 104.08 45.3023 94.3008 45.3008C84.5214 45.3023 75.3726 48.0023 67.5583 52.6967Z"
        fill="white" />
</svg>